<?xml version="1.0" encoding="UTF-8" standalone="no"?>
<!-- Created with Inkscape (http://www.inkscape.org/) -->

<svg
   width="250mm"
   height="200mm"
   viewBox="0 0 250 200"
   version="1.1"
   id="svg1"
   inkscape:version="1.4 (86a8ad7, 2024-10-11)"
   sodipodi:docname="logo.svg"
   xmlns:inkscape="http://www.inkscape.org/namespaces/inkscape"
   xmlns:sodipodi="http://sodipodi.sourceforge.net/DTD/sodipodi-0.dtd"
   xmlns:xlink="http://www.w3.org/1999/xlink"
   xmlns="http://www.w3.org/2000/svg"
   xmlns:svg="http://www.w3.org/2000/svg">
  <sodipodi:namedview
     id="namedview1"
     pagecolor="#ffffff"
     bordercolor="#000000"
     borderopacity="0.25"
     inkscape:showpageshadow="2"
     inkscape:pageopacity="0.0"
     inkscape:pagecheckerboard="0"
     inkscape:deskcolor="#d1d1d1"
     inkscape:document-units="mm"
     inkscape:zoom="0.43371219"
     inkscape:cx="583.33615"
     inkscape:cy="524.5414"
     inkscape:window-width="1366"
     inkscape:window-height="705"
     inkscape:window-x="-8"
     inkscape:window-y="-8"
     inkscape:window-maximized="1"
     inkscape:current-layer="layer1"
     showgrid="false"
     showguides="false" />
  <defs
     id="defs1">
    <linearGradient
       id="linearGradient35"
       inkscape:collect="always">
      <stop
         style="stop-color:#616161;stop-opacity:1;"
         offset="0"
         id="stop35" />
      <stop
         style="stop-color:#616161;stop-opacity:1;"
         offset="1"
         id="stop36" />
    </linearGradient>
    <linearGradient
       id="linearGradient32"
       inkscape:collect="always">
      <stop
         style="stop-color:#454545;stop-opacity:1;"
         offset="0"
         id="stop32" />
      <stop
         style="stop-color:#f1f1f1;stop-opacity:1;"
         offset="1"
         id="stop33" />
    </linearGradient>
    <inkscape:path-effect
       effect="skeletal"
       id="path-effect18"
       is_visible="true"
       lpeversion="1"
       pattern="M 0,4.9921383 C 0,2.236478 2.236478,0 4.9921383,0 c 2.7556604,0 4.9921384,2.236478 4.9921384,4.9921383 0,2.7556604 -2.236478,4.9921384 -4.9921384,4.9921384 C 2.236478,9.9842767 0,7.7477987 0,4.9921383 Z"
       copytype="single_stretched"
       prop_scale="1"
       scale_y_rel="false"
       spacing="0"
       normal_offset="0"
       tang_offset="0"
       prop_units="false"
       vertical_pattern="false"
       hide_knot="false"
       fuse_tolerance="0" />
    <inkscape:path-effect
       effect="spiro"
       id="path-effect17"
       is_visible="true"
       lpeversion="1" />
    <inkscape:path-effect
       effect="fillet_chamfer"
       id="path-effect1"
       is_visible="true"
       lpeversion="1"
       nodesatellites_param="F,0,0,1,0,0,0,1 @ F,0,0,1,0,0,0,1 @ F,0,0,1,0,0,0,1 @ F,0,0,1,0,0,0,1 @ F,0,0,1,0,0,0,1 @ F,0,0,1,0,0,0,1 @ F,0,0,1,0,0,0,1 @ F,0,0,1,0,0,0,1 @ F,0,0,1,0,0,0,1 @ F,0,0,1,0,0,0,1 @ F,0,0,1,0,0,0,1 @ F,0,0,1,0,0,0,1 | F,0,0,1,0,0,0,1 @ F,0,0,1,0,0,0,1 @ F,0,0,1,0,0,0,1 @ F,0,0,1,0,0,0,1 @ F,0,0,1,0,0,0,1 @ F,0,0,1,0,0,0,1 @ F,0,0,1,0,0,0,1 @ F,0,0,1,0,0,0,1 @ F,0,0,1,0,0,0,1 @ F,0,0,1,0,0,0,1 | F,0,0,1,0,0,0,1 @ F,0,0,1,0,0,0,1 @ F,0,0,1,0,0,0,1 @ F,0,0,1,0,0,0,1 @ F,0,0,1,0,0,0,1 @ F,0,0,1,0,0,0,1 @ F,0,0,1,0,0,0,1 @ F,0,0,1,0,0,0,1 @ F,0,0,1,0,0,0,1 @ F,0,0,1,0,0,0,1 @ F,0,0,1,0,0,0,1 @ F,0,0,1,0,0,0,1 @ F,0,0,1,0,0,0,1 @ F,0,0,1,0,0,0,1 @ F,0,0,1,0,0,0,1 @ F,0,0,1,0,0,0,1 @ F,0,0,1,0,0,0,1 @ F,0,0,1,0,0,0,1 @ F,0,0,1,0,0,0,1 | F,0,0,1,0,0,0,1 @ F,0,0,1,0,0,0,1 @ F,0,0,1,0,0,0,1 @ F,0,0,1,0,0,0,1 @ F,0,0,1,0,0,0,1 @ F,0,0,1,0,0,0,1 @ F,0,0,1,0,0,0,1 @ F,0,0,1,0,0,0,1"
       radius="0"
       unit="px"
       method="auto"
       mode="F"
       chamfer_steps="1"
       flexible="false"
       use_knot_distance="true"
       apply_no_radius="true"
       apply_with_radius="true"
       only_selected="false"
       hide_knots="false" />
    <linearGradient
       inkscape:collect="always"
       xlink:href="#linearGradient32"
       id="linearGradient33"
       x1="31.151674"
       y1="99.440376"
       x2="228.9938"
       y2="99.440376"
       gradientUnits="userSpaceOnUse"
       gradientTransform="translate(-5.0727351,0.559626)" />
    <linearGradient
       inkscape:collect="always"
       xlink:href="#linearGradient35"
       id="linearGradient36"
       x1="31.151674"
       y1="99.440376"
       x2="228.9938"
       y2="99.440376"
       gradientUnits="userSpaceOnUse"
       gradientTransform="translate(-5.0727351,0.559626)" />
  </defs>
  <g
     inkscape:label="Layer 1"
     inkscape:groupmode="layer"
     id="layer1">
    <path
       id="path32-1"
       style="fill:#000000;fill-opacity:0.45;stroke:none;stroke-width:4;stroke-miterlimit:3;stroke-dasharray:none;stroke-opacity:0.3"
       d="M 78.890815,25.250257 36.330211,189.36538 H 144.92525 l 13.2693,-41.53567 h -10.34831 l -10.3463,30.88801 H 49.986348 L 88.941592,35.092986 H 107.98564 L 97.651702,69.630633 h 12.040928 l 12.8901,-44.380376 z M 68.953745,147.82971 97.651702,69.630633 H 124.5893 c 6.08097,0 10.58467,0.373393 13.51113,1.120178 4.10223,1.031275 7.23992,2.898238 9.41302,5.600889 2.84616,3.484997 4.28437,7.947928 4.31463,13.388791 0.0789,5.405303 -1.16061,11.592939 -3.7185,18.562939 -2.17943,5.93872 -4.80434,11.20178 -7.87474,15.78917 -3.07039,4.5874 -6.24485,8.39245 -9.52338,11.41515 -3.26547,2.98714 -6.51592,5.35196 -9.75136,7.09446 -3.18682,1.70694 -6.77478,3.00492 -10.76385,3.89395 -3.95349,0.88903 -8.29507,1.33355 -13.024708,1.33355 z m 13.7349,-9.22814 h 16.695977 c 5.156378,0 9.368748,-0.48007 12.637138,-1.44022 3.30394,-0.96015 6.14689,-2.31148 8.52887,-4.05398 3.35419,-2.45373 6.46388,-5.74314 9.32907,-9.86823 2.91379,-4.16066 5.45387,-9.19257 7.62024,-15.09573 3.00161,-8.179071 3.95369,-14.455626 2.85625,-18.829653 -1.04883,-4.409589 -3.21949,-7.361168 -6.51199,-8.854738 -2.38226,-1.066836 -6.64943,-1.600254 -12.80152,-1.600254 h -16.42927 z m 65.157595,9.22814 28.69796,-78.199077 h 29.49802 c 5.19193,0 9.06565,0.248929 11.62116,0.746786 3.6057,0.640101 6.37375,1.866963 8.30415,3.680584 1.94344,1.77806 3.10371,4.285124 3.48082,7.521193 0.41266,3.236069 -0.0923,6.792189 -1.51476,10.66836 -2.44044,6.649943 -6.62483,12.286384 -12.55318,16.909344 -5.91529,4.58739 -14.4027,6.88109 -25.46223,6.88109 h -20.05652 l -11.66711,31.79172 z m 25.40201,-41.01985 h 20.21655 c 6.6855,0 11.88969,-1.24464 15.61256,-3.73393 3.72287,-2.48928 6.413,-5.992051 8.07041,-10.508323 1.20065,-3.271631 1.38942,-6.063185 0.56633,-8.374663 -0.77449,-2.347039 -2.37603,-3.893951 -4.80462,-4.640736 -1.57284,-0.462295 -4.7063,-0.693443 -9.40038,-0.693443 h -20.00319 z"
       sodipodi:nodetypes="cccccccccccccccscccsscccsccscscsccsccccscccscsccccsssccscc" />
    <path
       id="path32"
       style="fill:url(#linearGradient33);fill-opacity:1;stroke:url(#linearGradient36);stroke-width:4;stroke-miterlimit:3;stroke-dasharray:none"
       d="M 71.224366,17.942438 28.663767,182.05756 H 137.25881 l 13.2693,-41.53567 H 140.1798 L 129.8335,171.4099 H 42.319904 L 81.275145,27.785167 H 100.31919 L 89.985252,62.322814 H 102.02618 L 114.91629,17.942438 Z M 61.287292,140.52189 89.985252,62.322814 h 26.937608 c 6.08096,0 10.58467,0.373393 13.51112,1.120178 4.10224,1.031275 7.23992,2.898238 9.41303,5.600889 2.84616,3.484997 4.28437,7.947928 4.31463,13.388791 0.0789,5.405303 -1.16061,11.592951 -3.7185,18.562938 -2.17943,5.93872 -4.80434,11.20178 -7.87474,15.78917 -3.07039,4.5874 -6.24485,8.39245 -9.52338,11.41515 -3.26547,2.98714 -6.51592,5.35196 -9.75136,7.09446 -3.18683,1.70694 -6.77478,3.00492 -10.76385,3.89395 -3.953498,0.88903 -8.295068,1.33355 -13.024708,1.33355 z M 75.0222,131.29375 h 16.695972 c 5.15638,0 9.368748,-0.48007 12.637138,-1.44022 3.30394,-0.96015 6.1469,-2.31148 8.52887,-4.05398 3.3542,-2.45373 6.46389,-5.74314 9.32907,-9.86823 2.91379,-4.16066 5.45388,-9.19257 7.62025,-15.09573 3.00161,-8.179072 3.95369,-14.455625 2.85624,-18.829652 -1.04883,-4.409589 -3.21949,-7.361168 -6.51199,-8.854738 -2.38226,-1.066836 -6.64943,-1.600254 -12.80152,-1.600254 H 96.946962 Z m 65.1576,9.22814 28.69796,-78.199076 h 29.49802 c 5.19193,0 9.06565,0.248929 11.62116,0.746786 3.6057,0.640101 6.37375,1.866963 8.30415,3.680584 1.94344,1.77806 3.10371,4.285124 3.48082,7.521193 0.41266,3.236069 -0.0923,6.792189 -1.51476,10.66836 -2.44044,6.649944 -6.62483,12.286394 -12.55318,16.909343 -5.91529,4.58739 -14.4027,6.88109 -25.46223,6.88109 h -20.05652 l -11.66711,31.79172 z m 25.40201,-41.019842 h 20.21655 c 6.6855,0 11.88969,-1.244642 15.61256,-3.733926 3.72287,-2.489284 6.413,-5.992062 8.07041,-10.508334 1.20065,-3.271631 1.38942,-6.063185 0.56632,-8.374663 -0.77449,-2.347039 -2.37603,-3.893951 -4.80462,-4.640736 -1.57284,-0.462295 -4.7063,-0.693443 -9.40038,-0.693443 h -20.00318 z"
       sodipodi:nodetypes="cccccccccccccccscccsscccsccscscsccsccccscccscsccccsssccscc" />
  </g>
</svg>
